<?xml version="1.0" encoding="UTF-8" standalone="no"?><!DOCTYPE svg PUBLIC "-//W3C//DTD SVG 1.1//EN" "http://www.w3.org/Graphics/SVG/1.1/DTD/svg11.dtd"><svg width="1543px" height="273px" version="1.1" xmlns="http://www.w3.org/2000/svg" xmlns:xlink="http://www.w3.org/1999/xlink" xml:space="preserve" xmlns:serif="http://www.serif.com/" style="fill-rule:evenodd;clip-rule:evenodd;stroke-linejoin:round;stroke-miterlimit:2;"><g transform="matrix(1,0,0,1,-1953,-1500)"><g id="Logo-with-Color--White-" serif:id="Logo with Color (White)" transform="matrix(0.467273,0,0,0.107059,1953.91,1500)"><rect x="0" y="0" width="3300" height="2550" style="fill:none;"/><g transform="matrix(2.14008,0,0,9.34066,0,-126.099)"><path d="M1541.91,163.933C1541.91,169.3 1541.56,174.13 1540.84,178.424L1432.16,178.424C1433.05,189.158 1436.81,197.567 1443.43,203.649C1450.05,209.732 1458.19,212.774 1467.85,212.774C1481.8,212.774 1491.73,206.78 1497.63,194.794L1538.16,194.794C1533.86,209.106 1525.63,220.869 1513.47,230.082C1501.3,239.296 1486.36,243.903 1468.65,243.903C1454.34,243.903 1441.5,240.727 1430.14,234.376C1418.78,228.025 1409.93,219.035 1403.58,207.406C1397.23,195.778 1394.05,182.36 1394.05,167.153C1394.05,151.768 1397.18,138.26 1403.44,126.632C1409.7,115.003 1418.47,106.058 1429.74,99.796C1441.01,93.535 1453.98,90.404 1468.65,90.404C1482.79,90.404 1495.44,93.445 1506.62,99.528C1517.81,105.61 1526.48,114.243 1532.65,125.424C1538.83,136.605 1541.91,149.442 1541.91,163.933ZM552.518,166.617C552.518,151.589 555.514,138.26 561.507,126.632C567.501,115.003 575.641,106.058 585.928,99.796C596.215,93.535 607.709,90.404 620.411,90.404C631.503,90.404 641.209,92.64 649.528,97.113C657.847,101.585 664.511,107.221 669.52,114.019L669.52,92.819L707.358,92.819L707.358,241.488L669.52,241.488L669.52,219.751C664.69,226.728 658.026,232.498 649.528,237.06C641.03,241.622 631.235,243.903 620.143,243.903C607.62,243.903 596.215,240.682 585.928,234.242C575.641,227.801 567.501,218.722 561.507,207.004C555.514,195.286 552.518,181.823 552.518,166.617ZM826.903,166.617C826.903,151.589 829.9,138.26 835.893,126.632C841.886,115.003 850.027,106.058 860.313,99.796C870.6,93.535 882.095,90.404 894.797,90.404C905.889,90.404 915.595,92.64 923.914,97.113C932.233,101.585 938.897,107.221 943.906,114.019L943.906,92.819L981.744,92.819L981.744,241.488L943.906,241.488L943.906,219.751C939.076,226.728 932.411,232.498 923.914,237.06C915.416,241.622 905.621,243.903 894.529,243.903C882.005,243.903 870.6,240.682 860.313,234.242C850.027,227.801 841.886,218.722 835.893,207.004C829.9,195.286 826.903,181.823 826.903,166.617ZM439.003,54.176C458.683,54.176 475.992,58.022 490.93,65.715C505.869,73.408 517.408,84.366 525.548,98.589C533.688,112.811 537.758,129.315 537.758,148.1C537.758,166.885 533.688,183.299 525.548,197.343C517.408,211.387 505.869,222.255 490.93,229.948C475.992,237.641 458.683,241.488 439.003,241.488L373.525,241.488L373.525,54.176L439.003,54.176ZM1220.42,92.819L1220.42,241.488L1182.85,241.488L1182.85,92.819L1220.42,92.819ZM779.941,123.68L779.941,195.599C779.941,200.608 781.149,204.231 783.564,206.467C785.979,208.703 790.049,209.822 795.774,209.822L813.217,209.822L813.217,241.488L789.602,241.488C757.936,241.488 742.103,226.102 742.103,195.33L742.103,123.68L724.392,123.68L724.392,92.819L742.103,92.819L742.103,56.054L779.941,56.054L779.941,92.819L813.217,92.819L813.217,123.68L779.941,123.68ZM1161.8,54.176L1161.8,241.488L1124.23,241.488L1124.23,161.786L1043.99,161.786L1043.99,241.488L1006.42,241.488L1006.42,54.176L1043.99,54.176L1043.99,131.194L1124.23,131.194L1124.23,54.176L1161.8,54.176ZM1316.5,206.87L1354.07,92.819L1394.05,92.819L1339.04,241.488L1293.42,241.488L1238.67,92.819L1278.92,92.819L1316.5,206.87ZM669.52,167.153C669.52,158.029 667.731,150.202 664.153,143.672C660.575,137.142 655.745,132.133 649.662,128.644C643.579,125.156 637.049,123.411 630.072,123.411C623.095,123.411 616.654,125.111 610.751,128.51C604.847,131.909 600.061,136.874 596.394,143.404C592.726,149.934 590.892,157.671 590.892,166.617C590.892,175.562 592.726,183.389 596.394,190.098C600.061,196.806 604.892,201.95 610.885,205.528C616.878,209.106 623.274,210.895 630.072,210.895C637.049,210.895 643.579,209.151 649.662,205.662C655.745,202.174 660.575,197.164 664.153,190.634C667.731,184.104 669.52,176.277 669.52,167.153ZM943.906,167.153C943.906,158.029 942.117,150.202 938.539,143.672C934.961,137.142 930.13,132.133 924.048,128.644C917.965,125.156 911.435,123.411 904.458,123.411C897.481,123.411 891.04,125.111 885.136,128.51C879.232,131.909 874.447,136.874 870.779,143.404C867.112,149.934 865.278,157.671 865.278,166.617C865.278,175.562 867.112,183.389 870.779,190.098C874.447,196.806 879.277,201.95 885.27,205.528C891.264,209.106 897.659,210.895 904.458,210.895C911.435,210.895 917.965,209.151 924.048,205.662C930.13,202.174 934.961,197.164 938.539,190.634C942.117,184.104 943.906,176.277 943.906,167.153ZM437.662,209.553C457.341,209.553 472.548,204.186 483.282,193.452C494.016,182.718 499.383,167.6 499.383,148.1C499.383,128.6 494.016,113.348 483.282,102.346C472.548,91.343 457.341,85.842 437.662,85.842L411.095,85.842L411.095,209.553L437.662,209.553ZM1503,153.199C1502.82,143.538 1499.33,135.8 1492.54,129.986C1485.74,124.172 1477.42,121.265 1467.58,121.265C1458.28,121.265 1450.45,124.082 1444.1,129.718C1437.75,135.353 1433.86,143.18 1432.42,153.199L1503,153.199ZM1201.91,75.107C1195.29,75.107 1189.79,73.005 1185.4,68.801C1181.02,64.597 1178.83,59.364 1178.83,53.102C1178.83,46.841 1181.02,41.608 1185.4,37.404C1189.79,33.199 1195.29,31.097 1201.91,31.097C1208.53,31.097 1214.03,33.199 1218.41,37.404C1222.8,41.608 1224.99,46.841 1224.99,53.102C1224.99,59.364 1222.8,64.597 1218.41,68.801C1214.03,73.005 1208.53,75.107 1201.91,75.107Z" style="fill:#fff;fill-rule:nonzero;"/></g><g transform="matrix(2.14008,0,0,9.34066,9.73195e-13,-126.099)"><path d="M111.708,14.102C114.013,13.944 116.281,14.749 117.969,16.327C119.658,17.904 120.617,20.111 120.617,22.421C120.665,63.422 120.665,237.275 120.665,277.621C120.665,282.253 116.91,286.007 112.278,286.007C101.196,286.007 81.789,286.007 70.707,286.007C68.483,286.007 66.35,285.124 64.777,283.551C63.204,281.978 62.32,279.845 62.32,277.621C62.32,266.539 62.32,247.132 62.32,236.05C62.32,233.826 61.437,231.693 59.864,230.12C58.291,228.547 56.158,227.663 53.934,227.663C42.033,227.663 20.374,227.663 8.474,227.663C6.249,227.663 4.116,226.78 2.543,225.207C0.97,223.634 0.087,221.501 0.087,219.277C0.087,195.025 0.087,126.534 0.087,126.534C0.778,72.356 51.238,19.008 111.708,14.102ZM222.815,266.43C222.815,255.624 214.055,246.864 203.249,246.864C185.745,246.864 160.931,246.864 148.114,246.864C143.482,246.864 139.727,250.619 139.727,255.25L139.727,277.621C139.727,282.253 143.482,286.007 148.114,286.007L203.249,286.007C214.055,286.007 222.815,277.247 222.815,266.441C222.815,266.437 222.815,266.434 222.815,266.43ZM262.784,208.213C262.784,203.023 260.722,198.046 257.053,194.377C253.383,190.707 248.406,188.646 243.217,188.646C215.902,188.646 167.512,188.646 148.114,188.646C145.89,188.646 143.757,189.529 142.184,191.102C140.611,192.675 139.727,194.808 139.727,197.033C139.727,203.637 139.727,212.799 139.727,219.403C139.727,221.627 140.611,223.76 142.184,225.333C143.757,226.906 145.89,227.79 148.114,227.79C167.512,227.79 215.902,227.79 243.217,227.79C248.406,227.79 253.383,225.728 257.053,222.059C260.722,218.389 262.784,213.412 262.784,208.223C262.784,208.22 262.784,208.216 262.784,208.213ZM278.771,149.995C278.771,144.805 276.709,139.829 273.04,136.159C269.37,132.49 264.394,130.428 259.204,130.428C228.393,130.428 169.839,130.428 148.114,130.428C145.89,130.428 143.757,131.312 142.184,132.885C140.611,134.457 139.727,136.591 139.727,138.815C139.727,145.419 139.727,154.581 139.727,161.185C139.727,163.409 140.611,165.543 142.184,167.115C143.757,168.688 145.89,169.572 148.114,169.572C169.839,169.572 228.393,169.572 259.204,169.572C264.394,169.572 269.37,167.51 273.04,163.841C276.709,160.171 278.771,155.195 278.771,150.005C278.771,150.002 278.771,149.998 278.771,149.995ZM262.784,91.777C262.784,86.588 260.722,81.611 257.053,77.941C253.383,74.272 248.406,72.21 243.217,72.21C215.902,72.21 167.512,72.21 148.114,72.21C145.89,72.21 143.757,73.094 142.184,74.667C140.611,76.24 139.727,78.373 139.727,80.597C139.727,87.201 139.727,96.363 139.727,102.967C139.727,105.192 140.611,107.325 142.184,108.898C143.757,110.471 145.89,111.354 148.114,111.354C167.512,111.354 215.902,111.354 243.217,111.354C248.406,111.354 253.383,109.293 257.053,105.623C260.722,101.954 262.784,96.977 262.784,91.787C262.784,91.784 262.784,91.78 262.784,91.777ZM222.815,33.559C222.815,22.753 214.055,13.993 203.249,13.993C185.745,13.993 160.931,13.993 148.114,13.993C143.482,13.993 139.727,17.747 139.727,22.379L139.727,44.75C139.727,49.381 143.482,53.136 148.114,53.136L203.249,53.136C214.055,53.136 222.815,44.376 222.815,33.57C222.815,33.566 222.815,33.563 222.815,33.559Z" style="fill:#abfbdf;"/></g><g transform="matrix(15.3184,0,0,66.8591,0.214008,4.67033)"><path d="M31.116,35.265C31.116,33.756 29.892,32.532 28.383,32.532L20.68,32.532C20.034,32.532 19.509,33.057 19.509,33.703L19.509,36.828C19.509,37.476 20.034,38 20.68,38L28.383,38C29.892,38 31.116,36.776 31.116,35.267L31.116,35.265ZM15.593,0.015C15.915,-0.007 16.232,0.105 16.468,0.325C16.704,0.546 16.838,0.854 16.838,1.177C16.845,6.905 16.845,31.192 16.845,36.828C16.845,37.475 16.32,38 15.673,38L9.865,38C9.555,38 9.257,37.876 9.037,37.656C8.817,37.437 8.694,37.139 8.694,36.828L8.694,31.021C8.694,30.71 8.571,30.412 8.351,30.193C8.131,29.972 7.833,29.849 7.522,29.849L1.172,29.849C0.861,29.849 0.563,29.726 0.343,29.506C0.123,29.286 0,28.988 0,28.677L0,15.721C0.097,8.153 7.146,0.7 15.593,0.015ZM36.699,27.132C36.699,26.407 36.411,25.712 35.898,25.199C35.386,24.686 34.69,24.399 33.965,24.399L20.68,24.399C20.369,24.399 20.071,24.522 19.851,24.742C19.631,24.962 19.508,25.259 19.508,25.57L19.508,28.695C19.508,29.006 19.631,29.304 19.851,29.524C20.071,29.744 20.369,29.867 20.68,29.867L33.965,29.867C34.69,29.867 35.386,29.579 35.898,29.066C36.411,28.554 36.699,27.858 36.699,27.134L36.699,27.132ZM38.932,19C38.932,18.275 38.644,17.579 38.131,17.067C37.619,16.554 36.924,16.266 36.199,16.266L20.68,16.266C20.369,16.266 20.071,16.39 19.851,16.609C19.631,16.829 19.508,17.127 19.508,17.438L19.508,20.563C19.508,20.874 19.631,21.172 19.851,21.391C20.071,21.611 20.369,21.734 20.68,21.734L36.199,21.734C36.924,21.734 37.619,21.447 38.131,20.934C38.644,20.421 38.932,19.726 38.932,19.001L38.932,19ZM36.699,10.866C36.699,10.141 36.411,9.446 35.898,8.934C35.386,8.421 34.69,8.133 33.965,8.133L20.68,8.133C20.369,8.133 20.071,8.256 19.851,8.476C19.631,8.696 19.508,8.994 19.508,9.304L19.508,12.429C19.508,12.74 19.631,13.038 19.851,13.258C20.071,13.478 20.369,13.601 20.68,13.601L33.965,13.601C34.69,13.601 35.386,13.313 35.898,12.8C36.411,12.288 36.699,11.593 36.699,10.868L36.699,10.866ZM31.116,2.733C31.116,1.224 29.892,0 28.383,0L20.68,0C20.034,0 19.509,0.525 19.509,1.171L19.509,4.296C19.509,4.944 20.034,5.468 20.68,5.468L28.383,5.468C29.892,5.468 31.116,4.244 31.116,2.735L31.116,2.733Z" style="fill:url(#_Linear1);"/></g></g></g><defs><linearGradient id="_Linear1" x1="0" y1="0" x2="1" y2="0" gradientUnits="userSpaceOnUse" gradientTransform="matrix(-13.5128,-26.0249,26.0249,-13.5128,25.5744,34.0199)"><stop offset="0" style="stop-color:#cbc3ff;stop-opacity:1"/><stop offset="0.21" style="stop-color:#cbc3ff;stop-opacity:1"/><stop offset="1" style="stop-color:#cbc3ff;stop-opacity:0"/></linearGradient></defs></svg>