<?xml version="1.0" encoding="UTF-8" standalone="no"?><!DOCTYPE svg PUBLIC "-//W3C//DTD SVG 1.1//EN" "http://www.w3.org/Graphics/SVG/1.1/DTD/svg11.dtd"><svg width="301px" height="300px" version="1.1" xmlns="http://www.w3.org/2000/svg" xmlns:xlink="http://www.w3.org/1999/xlink" xml:space="preserve" xmlns:serif="http://www.serif.com/" style="fill-rule:evenodd;clip-rule:evenodd;stroke-linejoin:round;stroke-miterlimit:2;"><g transform="matrix(1,0,0,1,-6234,-500)"><g id="Logomark--White-" serif:id="Logomark (White)" transform="matrix(0.3,0,0,0.3,5229.91,500)"><rect x="3350" y="0" width="1000" height="1000" style="fill:none;"/><g transform="matrix(3.33333,0,0,3.33333,-10920,-1.51582e-12)"><path d="M4401.49,5.324C4403.94,5.156 4406.36,6.014 4408.15,7.693C4409.95,9.372 4410.97,11.721 4410.97,14.181C4411.02,57.829 4411.02,242.912 4411.02,285.864C4411.02,290.795 4407.03,294.792 4402.1,294.792C4390.3,294.792 4369.64,294.792 4357.84,294.792C4355.47,294.792 4353.2,293.851 4351.53,292.177C4349.85,290.503 4348.91,288.232 4348.91,285.864C4348.91,274.066 4348.91,253.405 4348.91,241.608C4348.91,239.24 4347.97,236.969 4346.3,235.295C4344.62,233.62 4342.35,232.68 4339.98,232.68C4327.31,232.68 4304.26,232.68 4291.59,232.68C4289.22,232.68 4286.95,231.739 4285.27,230.064C4283.6,228.39 4282.66,226.119 4282.66,223.751C4282.66,197.933 4282.66,125.018 4282.66,125.018C4283.39,67.341 4337.11,10.547 4401.49,5.324ZM4519.77,273.951C4519.77,262.446 4510.45,253.12 4498.94,253.12C4480.31,253.12 4453.89,253.12 4440.25,253.12C4435.32,253.12 4431.32,257.117 4431.32,262.048L4431.32,285.864C4431.32,290.795 4435.32,294.792 4440.25,294.792L4498.94,294.792C4510.45,294.792 4519.77,285.466 4519.77,273.962C4519.77,273.958 4519.77,273.954 4519.77,273.951ZM4562.32,211.973C4562.32,206.448 4560.13,201.15 4556.22,197.243C4552.32,193.337 4547.02,191.142 4541.49,191.142C4512.41,191.142 4460.9,191.142 4440.25,191.142C4437.88,191.142 4435.61,192.083 4433.93,193.757C4432.26,195.431 4431.32,197.702 4431.32,200.07C4431.32,207.101 4431.32,216.855 4431.32,223.886C4431.32,226.254 4432.26,228.525 4433.93,230.199C4435.61,231.873 4437.88,232.814 4440.25,232.814C4460.9,232.814 4512.41,232.814 4541.49,232.814C4547.02,232.814 4552.32,230.619 4556.22,226.713C4560.13,222.806 4562.32,217.508 4562.32,211.984C4562.32,211.98 4562.32,211.976 4562.32,211.973ZM4579.34,149.994C4579.34,144.47 4577.15,139.172 4573.24,135.265C4569.33,131.359 4564.04,129.164 4558.51,129.164C4525.71,129.164 4463.37,129.164 4440.25,129.164C4437.88,129.164 4435.61,130.105 4433.93,131.779C4432.26,133.453 4431.32,135.724 4431.32,138.092C4431.32,145.123 4431.32,154.877 4431.32,161.908C4431.32,164.276 4432.26,166.547 4433.93,168.221C4435.61,169.895 4437.88,170.836 4440.25,170.836C4463.37,170.836 4525.71,170.836 4558.51,170.836C4564.04,170.836 4569.33,168.641 4573.24,164.735C4577.15,160.828 4579.34,155.53 4579.34,150.006C4579.34,150.002 4579.34,149.998 4579.34,149.994ZM4562.32,88.016C4562.32,82.492 4560.13,77.194 4556.22,73.287C4552.32,69.381 4547.02,67.186 4541.49,67.186C4512.41,67.186 4460.9,67.186 4440.25,67.186C4437.88,67.186 4435.61,68.127 4433.93,69.801C4432.26,71.475 4431.32,73.746 4431.32,76.114C4431.32,83.145 4431.32,92.899 4431.32,99.93C4431.32,102.298 4432.26,104.569 4433.93,106.243C4435.61,107.917 4437.88,108.858 4440.25,108.858C4460.9,108.858 4512.41,108.858 4541.49,108.858C4547.02,108.858 4552.32,106.663 4556.22,102.757C4560.13,98.85 4562.32,93.552 4562.32,88.027C4562.32,88.024 4562.32,88.02 4562.32,88.016ZM4519.77,26.038C4519.77,14.534 4510.45,5.208 4498.94,5.208C4480.31,5.208 4453.89,5.208 4440.25,5.208C4435.32,5.208 4431.32,9.205 4431.32,14.136L4431.32,37.952C4431.32,42.883 4435.32,46.88 4440.25,46.88L4498.94,46.88C4510.45,46.88 4519.77,37.554 4519.77,26.049C4519.77,26.046 4519.77,26.042 4519.77,26.038Z"/></g></g></g></svg>