<?xml version="1.0" encoding="UTF-8" standalone="no"?><!DOCTYPE svg PUBLIC "-//W3C//DTD SVG 1.1//EN" "http://www.w3.org/Graphics/SVG/1.1/DTD/svg11.dtd"><svg width="301px" height="300px" version="1.1" xmlns="http://www.w3.org/2000/svg" xmlns:xlink="http://www.w3.org/1999/xlink" xml:space="preserve" xmlns:serif="http://www.serif.com/" style="fill-rule:evenodd;clip-rule:evenodd;stroke-linejoin:round;stroke-miterlimit:2;"><g transform="matrix(1,0,0,1,-6234,-1000)"><g id="Logomark--Gradient-" serif:id="Logomark (Gradient)" transform="matrix(0.3,0,0,0.3,5229.91,1000)"><rect x="3350" y="0" width="1000" height="1000" style="fill:none;"/><g transform="matrix(3.54863,0,0,3.54863,3355.22,-32.2946)"><path d="M111.708,14.102C114.013,13.944 116.281,14.749 117.969,16.327C119.658,17.904 120.617,20.111 120.617,22.421C120.665,63.422 120.665,237.275 120.665,277.621C120.665,282.253 116.91,286.007 112.278,286.007C101.196,286.007 81.789,286.007 70.707,286.007C68.483,286.007 66.35,285.124 64.777,283.551C63.204,281.978 62.32,279.845 62.32,277.621C62.32,266.539 62.32,247.132 62.32,236.05C62.32,233.826 61.437,231.693 59.864,230.12C58.291,228.547 56.158,227.663 53.934,227.663C42.033,227.663 20.374,227.663 8.474,227.663C6.249,227.663 4.116,226.78 2.543,225.207C0.97,223.634 0.087,221.501 0.087,219.277C0.087,195.025 0.087,126.534 0.087,126.534C0.778,72.356 51.238,19.008 111.708,14.102ZM222.815,266.43C222.815,255.624 214.055,246.864 203.249,246.864C185.745,246.864 160.931,246.864 148.114,246.864C143.482,246.864 139.727,250.619 139.727,255.25L139.727,277.621C139.727,282.253 143.482,286.007 148.114,286.007L203.249,286.007C214.055,286.007 222.815,277.247 222.815,266.441C222.815,266.437 222.815,266.434 222.815,266.43ZM262.784,208.213C262.784,203.023 260.722,198.046 257.053,194.377C253.383,190.707 248.406,188.646 243.217,188.646C215.902,188.646 167.512,188.646 148.114,188.646C145.89,188.646 143.757,189.529 142.184,191.102C140.611,192.675 139.727,194.808 139.727,197.033C139.727,203.637 139.727,212.799 139.727,219.403C139.727,221.627 140.611,223.76 142.184,225.333C143.757,226.906 145.89,227.79 148.114,227.79C167.512,227.79 215.902,227.79 243.217,227.79C248.406,227.79 253.383,225.728 257.053,222.059C260.722,218.389 262.784,213.412 262.784,208.223C262.784,208.22 262.784,208.216 262.784,208.213ZM278.771,149.995C278.771,144.805 276.709,139.829 273.04,136.159C269.37,132.49 264.394,130.428 259.204,130.428C228.393,130.428 169.839,130.428 148.114,130.428C145.89,130.428 143.757,131.312 142.184,132.885C140.611,134.457 139.727,136.591 139.727,138.815C139.727,145.419 139.727,154.581 139.727,161.185C139.727,163.409 140.611,165.543 142.184,167.115C143.757,168.688 145.89,169.572 148.114,169.572C169.839,169.572 228.393,169.572 259.204,169.572C264.394,169.572 269.37,167.51 273.04,163.841C276.709,160.171 278.771,155.195 278.771,150.005C278.771,150.002 278.771,149.998 278.771,149.995ZM262.784,91.777C262.784,86.588 260.722,81.611 257.053,77.941C253.383,74.272 248.406,72.21 243.217,72.21C215.902,72.21 167.512,72.21 148.114,72.21C145.89,72.21 143.757,73.094 142.184,74.667C140.611,76.24 139.727,78.373 139.727,80.597C139.727,87.201 139.727,96.363 139.727,102.967C139.727,105.192 140.611,107.325 142.184,108.898C143.757,110.471 145.89,111.354 148.114,111.354C167.512,111.354 215.902,111.354 243.217,111.354C248.406,111.354 253.383,109.293 257.053,105.623C260.722,101.954 262.784,96.977 262.784,91.787C262.784,91.784 262.784,91.78 262.784,91.777ZM222.815,33.559C222.815,22.753 214.055,13.993 203.249,13.993C185.745,13.993 160.931,13.993 148.114,13.993C143.482,13.993 139.727,17.747 139.727,22.379L139.727,44.75C139.727,49.381 143.482,53.136 148.114,53.136L203.249,53.136C214.055,53.136 222.815,44.376 222.815,33.57C222.815,33.566 222.815,33.563 222.815,33.559Z" style="fill:#abfbdf;"/></g><g transform="matrix(25.4006,0,0,25.4006,3355.55,17.3862)"><path d="M31.116,35.265C31.116,33.756 29.892,32.532 28.383,32.532L20.68,32.532C20.034,32.532 19.509,33.057 19.509,33.703L19.509,36.828C19.509,37.476 20.034,38 20.68,38L28.383,38C29.892,38 31.116,36.776 31.116,35.267L31.116,35.265ZM15.593,0.015C15.915,-0.007 16.232,0.105 16.468,0.325C16.704,0.546 16.838,0.854 16.838,1.177C16.845,6.905 16.845,31.192 16.845,36.828C16.845,37.475 16.32,38 15.673,38L9.865,38C9.555,38 9.257,37.876 9.037,37.656C8.817,37.437 8.694,37.139 8.694,36.828L8.694,31.021C8.694,30.71 8.571,30.412 8.351,30.193C8.131,29.972 7.833,29.849 7.522,29.849L1.172,29.849C0.861,29.849 0.563,29.726 0.343,29.506C0.123,29.286 0,28.988 0,28.677L0,15.721C0.097,8.153 7.146,0.7 15.593,0.015ZM36.699,27.132C36.699,26.407 36.411,25.712 35.898,25.199C35.386,24.686 34.69,24.399 33.965,24.399L20.68,24.399C20.369,24.399 20.071,24.522 19.851,24.742C19.631,24.962 19.508,25.259 19.508,25.57L19.508,28.695C19.508,29.006 19.631,29.304 19.851,29.524C20.071,29.744 20.369,29.867 20.68,29.867L33.965,29.867C34.69,29.867 35.386,29.579 35.898,29.066C36.411,28.554 36.699,27.858 36.699,27.134L36.699,27.132ZM38.932,19C38.932,18.275 38.644,17.579 38.131,17.067C37.619,16.554 36.924,16.266 36.199,16.266L20.68,16.266C20.369,16.266 20.071,16.39 19.851,16.609C19.631,16.829 19.508,17.127 19.508,17.438L19.508,20.563C19.508,20.874 19.631,21.172 19.851,21.391C20.071,21.611 20.369,21.734 20.68,21.734L36.199,21.734C36.924,21.734 37.619,21.447 38.131,20.934C38.644,20.421 38.932,19.726 38.932,19.001L38.932,19ZM36.699,10.866C36.699,10.141 36.411,9.446 35.898,8.934C35.386,8.421 34.69,8.133 33.965,8.133L20.68,8.133C20.369,8.133 20.071,8.256 19.851,8.476C19.631,8.696 19.508,8.994 19.508,9.304L19.508,12.429C19.508,12.74 19.631,13.038 19.851,13.258C20.071,13.478 20.369,13.601 20.68,13.601L33.965,13.601C34.69,13.601 35.386,13.313 35.898,12.8C36.411,12.288 36.699,11.593 36.699,10.868L36.699,10.866ZM31.116,2.733C31.116,1.224 29.892,0 28.383,0L20.68,0C20.034,0 19.509,0.525 19.509,1.171L19.509,4.296C19.509,4.944 20.034,5.468 20.68,5.468L28.383,5.468C29.892,5.468 31.116,4.244 31.116,2.735L31.116,2.733Z" style="fill:url(#_Linear1);"/></g></g></g><defs><linearGradient id="_Linear1" x1="0" y1="0" x2="1" y2="0" gradientUnits="userSpaceOnUse" gradientTransform="matrix(-13.5128,-26.0249,26.0249,-13.5128,25.5744,34.0199)"><stop offset="0" style="stop-color:#cbc3ff;stop-opacity:1"/><stop offset="0.21" style="stop-color:#cbc3ff;stop-opacity:1"/><stop offset="1" style="stop-color:#cbc3ff;stop-opacity:0"/></linearGradient></defs></svg>