<?xml version="1.0" encoding="UTF-8" standalone="no"?><!DOCTYPE svg PUBLIC "-//W3C//DTD SVG 1.1//EN" "http://www.w3.org/Graphics/SVG/1.1/DTD/svg11.dtd"><svg width="1170px" height="213px" version="1.1" xmlns="http://www.w3.org/2000/svg" xmlns:xlink="http://www.w3.org/1999/xlink" xml:space="preserve" xmlns:serif="http://www.serif.com/" style="fill-rule:evenodd;clip-rule:evenodd;stroke-linejoin:round;stroke-miterlimit:2;"><g transform="matrix(1,0,0,1,-4280,-1000)"><g id="Logotype--Gradient-" serif:id="Logotype (Gradient)" transform="matrix(0.354242,0,0,0.0835294,4280.91,1000)"><rect x="0" y="0" width="3300" height="2550" style="fill:none;"/><g transform="matrix(2.82293,0,0,11.9718,-6568.95,0)"><path d="M3495.69,132.933C3495.69,138.3 3495.34,143.13 3494.62,147.424L3385.94,147.424C3386.83,158.158 3390.59,166.567 3397.21,172.649C3403.83,178.732 3411.97,181.774 3421.63,181.774C3435.58,181.774 3445.51,175.78 3451.42,163.794L3491.94,163.794C3487.64,178.106 3479.41,189.869 3467.25,199.082C3455.08,208.296 3440.14,212.903 3422.43,212.903C3408.12,212.903 3395.28,209.727 3383.92,203.376C3372.56,197.025 3363.71,188.035 3357.36,176.406C3351.01,164.778 3347.83,151.36 3347.83,136.153C3347.83,120.768 3350.96,107.26 3357.22,95.632C3363.49,84.003 3372.25,75.058 3383.52,68.796C3394.79,62.535 3407.76,59.404 3422.43,59.404C3436.57,59.404 3449.22,62.445 3460.41,68.528C3471.59,74.61 3480.26,83.243 3486.44,94.424C3492.61,105.605 3495.69,118.442 3495.69,132.933ZM2506.3,135.617C2506.3,120.589 2509.3,107.26 2515.29,95.632C2521.28,84.003 2529.42,75.058 2539.71,68.796C2550,62.535 2561.49,59.404 2574.19,59.404C2585.28,59.404 2594.99,61.64 2603.31,66.113C2611.63,70.585 2618.29,76.221 2623.3,83.019L2623.3,61.819L2661.14,61.819L2661.14,210.488L2623.3,210.488L2623.3,188.751C2618.47,195.728 2611.81,201.498 2603.31,206.06C2594.81,210.622 2585.02,212.903 2573.92,212.903C2561.4,212.903 2550,209.682 2539.71,203.242C2529.42,196.801 2521.28,187.722 2515.29,176.004C2509.3,164.286 2506.3,150.823 2506.3,135.617ZM2780.68,135.617C2780.68,120.589 2783.68,107.26 2789.67,95.632C2795.67,84.003 2803.81,75.058 2814.09,68.796C2824.38,62.535 2835.88,59.404 2848.58,59.404C2859.67,59.404 2869.38,61.64 2877.69,66.113C2886.01,70.585 2892.68,76.221 2897.69,83.019L2897.69,61.819L2935.53,61.819L2935.53,210.488L2897.69,210.488L2897.69,188.751C2892.86,195.728 2886.19,201.498 2877.69,206.06C2869.2,210.622 2859.4,212.903 2848.31,212.903C2835.79,212.903 2824.38,209.682 2814.09,203.242C2803.81,196.801 2795.67,187.722 2789.67,176.004C2783.68,164.286 2780.68,150.823 2780.68,135.617ZM2392.78,23.176C2412.46,23.176 2429.77,27.022 2444.71,34.715C2459.65,42.408 2471.19,53.366 2479.33,67.589C2487.47,81.811 2491.54,98.315 2491.54,117.1C2491.54,135.885 2487.47,152.299 2479.33,166.343C2471.19,180.387 2459.65,191.255 2444.71,198.948C2429.77,206.641 2412.46,210.488 2392.78,210.488L2327.31,210.488L2327.31,23.176L2392.78,23.176ZM3174.2,61.819L3174.2,210.488L3136.64,210.488L3136.64,61.819L3174.2,61.819ZM2733.72,92.68L2733.72,164.599C2733.72,169.608 2734.93,173.231 2737.35,175.467C2739.76,177.703 2743.83,178.822 2749.55,178.822L2767,178.822L2767,210.488L2743.38,210.488C2711.72,210.488 2695.88,195.102 2695.88,164.33L2695.88,92.68L2678.17,92.68L2678.17,61.819L2695.88,61.819L2695.88,25.054L2733.72,25.054L2733.72,61.819L2767,61.819L2767,92.68L2733.72,92.68ZM3115.58,23.176L3115.58,210.488L3078.01,210.488L3078.01,130.786L2997.77,130.786L2997.77,210.488L2960.2,210.488L2960.2,23.176L2997.77,23.176L2997.77,100.194L3078.01,100.194L3078.01,23.176L3115.58,23.176ZM3270.28,175.87L3307.85,61.819L3347.83,61.819L3292.82,210.488L3247.2,210.488L3192.45,61.819L3232.71,61.819L3270.28,175.87ZM2623.3,136.153C2623.3,127.029 2621.51,119.202 2617.93,112.672C2614.36,106.142 2609.53,101.133 2603.44,97.644C2597.36,94.156 2590.83,92.411 2583.85,92.411C2576.88,92.411 2570.43,94.111 2564.53,97.51C2558.63,100.909 2553.84,105.874 2550.18,112.404C2546.51,118.934 2544.67,126.671 2544.67,135.617C2544.67,144.562 2546.51,152.389 2550.18,159.098C2553.84,165.806 2558.67,170.95 2564.67,174.528C2570.66,178.106 2577.05,179.895 2583.85,179.895C2590.83,179.895 2597.36,178.151 2603.44,174.662C2609.53,171.174 2614.36,166.164 2617.93,159.634C2621.51,153.104 2623.3,145.277 2623.3,136.153ZM2897.69,136.153C2897.69,127.029 2895.9,119.202 2892.32,112.672C2888.74,106.142 2883.91,101.133 2877.83,97.644C2871.75,94.156 2865.22,92.411 2858.24,92.411C2851.26,92.411 2844.82,94.111 2838.92,97.51C2833.01,100.909 2828.23,105.874 2824.56,112.404C2820.89,118.934 2819.06,126.671 2819.06,135.617C2819.06,144.562 2820.89,152.389 2824.56,159.098C2828.23,165.806 2833.06,170.95 2839.05,174.528C2845.05,178.106 2851.44,179.895 2858.24,179.895C2865.22,179.895 2871.75,178.151 2877.83,174.662C2883.91,171.174 2888.74,166.164 2892.32,159.634C2895.9,153.104 2897.69,145.277 2897.69,136.153ZM2391.44,178.553C2411.12,178.553 2426.33,173.186 2437.06,162.452C2447.8,151.718 2453.16,136.6 2453.16,117.1C2453.16,97.6 2447.8,82.348 2437.06,71.346C2426.33,60.343 2411.12,54.842 2391.44,54.842L2364.88,54.842L2364.88,178.553L2391.44,178.553ZM3456.78,122.199C3456.6,112.538 3453.12,104.8 3446.32,98.986C3439.52,93.172 3431.2,90.265 3421.36,90.265C3412.06,90.265 3404.23,93.082 3397.88,98.718C3391.53,104.353 3387.64,112.18 3386.2,122.199L3456.78,122.199ZM3155.69,44.107C3149.07,44.107 3143.57,42.005 3139.18,37.801C3134.8,33.597 3132.61,28.364 3132.61,22.102C3132.61,15.841 3134.8,10.608 3139.18,6.404C3143.57,2.199 3149.07,0.097 3155.69,0.097C3162.31,0.097 3167.81,2.199 3172.19,6.404C3176.58,10.608 3178.77,15.841 3178.77,22.102C3178.77,28.364 3176.58,33.597 3172.19,37.801C3167.81,42.005 3162.31,44.107 3155.69,44.107Z" style="fill:url(#_Linear1);fill-rule:nonzero;"/></g></g></g><defs><linearGradient id="_Linear1" x1="0" y1="0" x2="1" y2="0" gradientUnits="userSpaceOnUse" gradientTransform="matrix(1168.69,213,-38.7949,212.861,2327,0)"><stop offset="0" style="stop-color:#abfbdf;stop-opacity:1"/><stop offset="1" style="stop-color:#cbc3ff;stop-opacity:1"/></linearGradient></defs></svg>